<svg width="70" height="70" viewBox="0 0 70 70" fill="none" xmlns="http://www.w3.org/2000/svg">
<g clip-path="url(#clip0_32_20)">
<path d="M58.3333 8.74996H55.4167V2.91663H49.5833V8.74996H20.4167V2.91663H14.5833V8.74996H11.6667C8.45834 8.74996 5.83334 11.375 5.83334 14.5833V61.25C5.83334 64.4583 8.45834 67.0833 11.6667 67.0833H58.3333C61.5417 67.0833 64.1667 64.4583 64.1667 61.25V14.5833C64.1667 11.375 61.5417 8.74996 58.3333 8.74996ZM58.3333 61.25H11.6667V23.3333H58.3333V61.25Z" fill="#118AB2"/>
<path d="M29.2637 47.0938V36.2656C29.2637 36.2656 31.5013 36.2656 35.9766 36.2656C37.0612 36.2656 37.9909 36.7988 38.7656 37.8652C39.5495 38.9225 39.9414 40.194 39.9414 41.6797C39.9414 43.1745 39.5495 44.4505 38.7656 45.5078C37.9909 46.5651 37.0612 47.0938 35.9766 47.0938H29.2637ZM30.248 46.1094H35.9766C36.7878 46.1094 37.4805 45.6764 38.0547 44.8105C38.638 43.9447 38.9297 42.901 38.9297 41.6797C38.9297 40.4492 38.638 39.4056 38.0547 38.5488C37.4805 37.6829 36.7878 37.25 35.9766 37.25H30.248V46.1094ZM28.2793 48.0781H35.9766C37.3346 48.0781 38.5013 47.4538 39.4766 46.2051C40.4609 44.9473 40.9531 43.4388 40.9531 41.6797C40.9531 40.5221 40.7253 39.4512 40.2695 38.4668C39.8229 37.4824 39.2168 36.7077 38.4512 36.1426C37.6947 35.5684 36.8698 35.2812 35.9766 35.2812H28.2793V48.0781ZM27.2949 49.0625V34.2969H35.9766C37.043 34.2969 38.0365 34.625 38.957 35.2812C39.8776 35.9375 40.6068 36.8353 41.1445 37.9746C41.6914 39.1048 41.9648 40.3398 41.9648 41.6797C41.9648 43.0104 41.6914 44.2454 41.1445 45.3848C40.6068 46.5241 39.8776 47.4219 38.957 48.0781C38.0365 48.7344 37.043 49.0625 35.9766 49.0625H27.2949ZM26.3105 50.0469H35.9766C37.2253 50.0469 38.3828 49.6732 39.4492 48.9258C40.5247 48.1784 41.3815 47.1621 42.0195 45.877C42.6576 44.5918 42.9766 43.1927 42.9766 41.6797C42.9766 40.1758 42.6576 38.7812 42.0195 37.4961C41.3815 36.2018 40.5247 35.181 39.4492 34.4336C38.3737 33.6862 37.2161 33.3125 35.9766 33.3125H26.3105V50.0469ZM25.3262 51.0312V32.3281H35.9766C37.3984 32.3281 38.7246 32.7474 39.9551 33.5859C41.1855 34.4154 42.1654 35.5501 42.8945 36.9902C43.6237 38.4303 43.9883 39.9935 43.9883 41.6797C43.9883 43.3659 43.6237 44.929 42.8945 46.3691C42.1654 47.8092 41.1855 48.9486 39.9551 49.7871C38.7246 50.6165 37.3984 51.0312 35.9766 51.0312H25.3262ZM24.3418 52.0156H35.9766C37.1706 52.0156 38.3236 51.7422 39.4355 51.1953C40.5475 50.6484 41.5091 49.9147 42.3203 48.9941C43.1315 48.0736 43.7786 46.9753 44.2617 45.6992C44.7539 44.4141 45 43.0742 45 41.6797C45 40.2852 44.7539 38.9499 44.2617 37.6738C43.7786 36.3978 43.1315 35.2995 42.3203 34.3789C41.5091 33.4492 40.5475 32.7109 39.4355 32.1641C38.3236 31.6172 37.1706 31.3438 35.9766 31.3438H24.3418V52.0156ZM35.9766 53H23.3574V30.3594H35.9766C37.7539 30.3594 39.4128 30.8652 40.9531 31.877C42.4935 32.8887 43.7194 34.265 44.6309 36.0059C45.5514 37.7467 46.0117 39.638 46.0117 41.6797C46.0117 43.2109 45.7383 44.6784 45.1914 46.082C44.6536 47.4766 43.9336 48.6797 43.0312 49.6914C42.1289 50.7031 41.0579 51.5098 39.8184 52.1113C38.5879 52.7038 37.3073 53 35.9766 53Z" fill="#118AB2"/>
</g>
<defs>
<clipPath id="clip0_32_20">
<rect width="70" height="70" fill="white"/>
</clipPath>
</defs>
</svg>
