<svg width="70" height="70" viewBox="0 0 70 70" fill="none" xmlns="http://www.w3.org/2000/svg">
<g clip-path="url(#clip0_32_10)">
<path d="M58.3333 8.74996H55.4167V2.91663H49.5833V8.74996H20.4167V2.91663H14.5833V8.74996H11.6667C8.45834 8.74996 5.83334 11.375 5.83334 14.5833V61.25C5.83334 64.4583 8.45834 67.0833 11.6667 67.0833H58.3333C61.5417 67.0833 64.1667 64.4583 64.1667 61.25V14.5833C64.1667 11.375 61.5417 8.74996 58.3333 8.74996ZM58.3333 61.25H11.6667V23.3333H58.3333V61.25Z" fill="#118AB2"/>
<path d="M21.8262 30.3594H22.8926L31.3145 51.6738L39.7363 30.3594H40.7891L31.8477 53H30.7812L21.8262 30.3594ZM31.998 48.0781L31.4375 49.3359L23.9453 30.3594H24.998L31.998 48.0781ZM33.0508 45.3848L32.5312 46.7383L26.0645 30.3594H27.1309L33.0508 45.3848ZM34.0898 42.6504L33.5703 44.0312L28.1836 30.3594H29.2363L34.0898 42.6504ZM46.0801 30.3594H47.1465L38.1914 53H37.1387L46.0801 30.3594ZM43.9746 30.3594H45.0273L36.0723 53H35.0195L43.9746 30.3594ZM41.8418 30.3594H42.9082L33.9531 53H32.9004L41.8418 30.3594Z" fill="#118AB2"/>
</g>
<defs>
<clipPath id="clip0_32_10">
<rect width="70" height="70" fill="white"/>
</clipPath>
</defs>
</svg>
