<svg width="70" height="70" viewBox="0 0 70 70" fill="none" xmlns="http://www.w3.org/2000/svg">
<g clip-path="url(#clip0_32_15)">
<path d="M58.3333 8.74996H55.4167V2.91663H49.5833V8.74996H20.4167V2.91663H14.5833V8.74996H11.6667C8.45834 8.74996 5.83334 11.375 5.83334 14.5833V61.25C5.83334 64.4583 8.45834 67.0833 11.6667 67.0833H58.3333C61.5417 67.0833 64.1667 64.4583 64.1667 61.25V14.5833C64.1667 11.375 61.5417 8.74996 58.3333 8.74996ZM58.3333 61.25H11.6667V23.3333H58.3333V61.25Z" fill="#118AB2"/>
<path d="M34.8613 39.2188H33.207C32.5052 39.2188 31.9993 39.041 31.6895 38.6855C31.3796 38.321 31.2246 37.8424 31.2246 37.25C31.2246 35.9375 32.2044 35.2812 34.1641 35.2812C36.0052 35.2812 37.3906 35.5547 38.3203 36.1016L37.5273 36.7031C36.8893 36.4115 35.7682 36.2656 34.1641 36.2656C33.3802 36.2656 32.8516 36.3522 32.5781 36.5254C32.3138 36.6986 32.1816 36.9401 32.1816 37.25C32.1816 37.5599 32.2546 37.8014 32.4004 37.9746C32.5462 38.1478 32.8151 38.2344 33.207 38.2344H34.9023C36.1328 38.2344 37.2402 38.444 38.2246 38.8633C39.2181 39.2826 40.0339 39.8568 40.6719 40.5859C41.3099 41.306 41.7975 42.14 42.1348 43.0879C42.472 44.0267 42.6406 45.0339 42.6406 46.1094C42.6406 46.9844 42.5176 47.8138 42.2715 48.5977C42.0254 49.3815 41.6517 50.1016 41.1504 50.7578C40.6582 51.4141 40.0612 51.9837 39.3594 52.4668C38.6667 52.9408 37.8372 53.3099 36.8711 53.5742C35.9141 53.8477 34.875 53.9844 33.7539 53.9844C31.9948 53.9844 30.3451 53.7155 28.8047 53.1777C27.2734 52.6491 25.9974 51.9062 24.9766 50.9492L25.7695 50.3613C26.6992 51.1999 27.8613 51.8516 29.2559 52.3164C30.6595 52.7721 32.1589 53 33.7539 53C35.0026 53 36.1283 52.8223 37.1309 52.4668C38.1426 52.1022 38.972 51.6055 39.6191 50.9766C40.2754 50.3477 40.7767 49.6185 41.123 48.7891C41.4785 47.9596 41.6562 47.0664 41.6562 46.1094C41.6562 44.8424 41.401 43.6986 40.8906 42.6777C40.3802 41.6478 39.6009 40.8138 38.5527 40.1758C37.5137 39.5378 36.2832 39.2188 34.8613 39.2188ZM33.207 40.2031H34.7656C36.6159 40.2031 38.0605 40.7682 39.0996 41.8984C40.1478 43.0286 40.6719 44.4323 40.6719 46.1094C40.6719 47.8138 40.0658 49.2266 38.8535 50.3477C37.6413 51.4596 35.9414 52.0156 33.7539 52.0156C32.2956 52.0156 30.9329 51.8151 29.666 51.4141C28.3991 51.013 27.3464 50.4479 26.5078 49.7188L27.2734 49.1035C28.0208 49.7142 28.9596 50.1882 30.0898 50.5254C31.2292 50.8626 32.4505 51.0312 33.7539 51.0312C35.6771 51.0312 37.1445 50.571 38.1562 49.6504C39.1771 48.7298 39.6875 47.5495 39.6875 46.1094C39.6875 44.6875 39.2591 43.5117 38.4023 42.582C37.5547 41.6523 36.3379 41.1875 34.752 41.1875H33.207C31.8763 41.1875 30.8783 40.8229 30.2129 40.0938C29.5475 39.3646 29.2148 38.4167 29.2148 37.25C29.2148 36.0833 29.625 35.1354 30.4453 34.4062C31.2747 33.6771 32.5143 33.3125 34.1641 33.3125C35.3216 33.3125 36.3971 33.4492 37.3906 33.7227C38.3841 33.987 39.2044 34.3698 39.8516 34.8711L39.0723 35.4727C37.9329 34.6888 36.2969 34.2969 34.1641 34.2969C32.7878 34.2969 31.7806 34.5703 31.1426 35.1172C30.5137 35.6549 30.1992 36.3659 30.1992 37.25C30.1992 38.1432 30.4316 38.8587 30.8965 39.3965C31.3704 39.9342 32.1406 40.2031 33.207 40.2031ZM33.207 42.1719H34.7109C36.0417 42.1719 37.0397 42.541 37.7051 43.2793C38.3704 44.0176 38.7031 44.9609 38.7031 46.1094C38.7031 47.276 38.2884 48.224 37.459 48.9531C36.6387 49.6823 35.4036 50.0469 33.7539 50.0469C32.5964 50.0469 31.5163 49.9147 30.5137 49.6504C29.5202 49.377 28.6999 48.9896 28.0527 48.4883L28.832 47.8867C29.9714 48.6706 31.612 49.0625 33.7539 49.0625C35.1302 49.0625 36.1328 48.7936 36.7617 48.2559C37.3997 47.709 37.7188 46.9935 37.7188 46.1094C37.7188 45.2253 37.4818 44.5143 37.0078 43.9766C36.5339 43.4297 35.7637 43.1562 34.6973 43.1562H33.207C31.3385 43.1562 29.8757 42.6003 28.8184 41.4883C27.7702 40.3672 27.2461 38.9544 27.2461 37.25C27.2461 35.5456 27.8522 34.1374 29.0645 33.0254C30.2767 31.9043 31.9766 31.3438 34.1641 31.3438C35.6224 31.3438 36.9805 31.5443 38.2383 31.9453C39.5052 32.3464 40.5579 32.9115 41.3965 33.6406L40.6309 34.2559C39.8835 33.6452 38.9447 33.1712 37.8145 32.834C36.6842 32.4967 35.4674 32.3281 34.1641 32.3281C32.2409 32.3281 30.7689 32.7884 29.748 33.709C28.7363 34.6296 28.2305 35.8099 28.2305 37.25C28.2305 38.681 28.6589 39.8613 29.5156 40.791C30.3724 41.7116 31.6029 42.1719 33.207 42.1719ZM33.207 44.1406H34.7109C35.4128 44.1406 35.9186 44.3229 36.2285 44.6875C36.5384 45.0521 36.6934 45.526 36.6934 46.1094C36.6934 47.4219 35.7135 48.0781 33.7539 48.0781C31.9036 48.0781 30.5137 47.8047 29.584 47.2578L30.377 46.6562C31.015 46.9479 32.1406 47.0938 33.7539 47.0938C34.5378 47.0938 35.0618 47.0072 35.3262 46.834C35.5996 46.6608 35.7363 46.4193 35.7363 46.1094C35.7363 45.8086 35.6589 45.5716 35.5039 45.3984C35.3581 45.2161 35.0846 45.125 34.6836 45.125H33.207C31.9492 45.125 30.8099 44.9199 29.7891 44.5098C28.7773 44.0996 27.9434 43.5345 27.2871 42.8145C26.64 42.0944 26.1432 41.2604 25.7969 40.3125C25.4505 39.3646 25.2773 38.3438 25.2773 37.25C25.2773 36.375 25.4004 35.5456 25.6465 34.7617C25.8926 33.9779 26.2617 33.2578 26.7539 32.6016C27.2552 31.9453 27.8522 31.3802 28.5449 30.9062C29.2467 30.4232 30.0762 30.0495 31.0332 29.7852C31.9993 29.5117 33.043 29.375 34.1641 29.375C35.9232 29.375 37.5684 29.6439 39.0996 30.1816C40.6309 30.7103 41.9069 31.4531 42.9277 32.4102L42.1348 32.998C41.2051 32.1595 40.043 31.5124 38.6484 31.0566C37.2539 30.5918 35.7591 30.3594 34.1641 30.3594C32.9154 30.3594 31.7852 30.5417 30.7734 30.9062C29.7708 31.2617 28.9414 31.7539 28.2852 32.3828C27.638 33.0117 27.1367 33.7409 26.7812 34.5703C26.4349 35.3997 26.2617 36.293 26.2617 37.25C26.2617 38.5352 26.5215 39.6927 27.041 40.7227C27.5605 41.7526 28.3535 42.582 29.4199 43.2109C30.4863 43.8307 31.7487 44.1406 33.207 44.1406Z" fill="#118AB2"/>
</g>
<defs>
<clipPath id="clip0_32_15">
<rect width="70" height="70" fill="white"/>
</clipPath>
</defs>
</svg>
